<?xml version="1.0" encoding="UTF-8"?>
<!--
Based on Military-Hat.svg from openclipart.org, released into the public domain using the
Creative Commons Zero 1.0 Public Domain License.
-->
<svg version="1.1" viewBox="0 0 449.98 333.92" xmlns="http://www.w3.org/2000/svg">
 <defs>
  <filter id="filter4403" color-interpolation-filters="sRGB">
   <feGaussianBlur stdDeviation="0.44693465"/>
  </filter>
  <filter id="filter4443" x="-.095393" y="-.29361" width="1.1908" height="1.5872" color-interpolation-filters="sRGB">
   <feGaussianBlur stdDeviation="1.6191843"/>
  </filter>
  <filter id="filter4481" color-interpolation-filters="sRGB">
   <feGaussianBlur stdDeviation="0.73888184"/>
  </filter>
 </defs>
 <path d="m58.57 276.8c-4.3155 37.606 43.593 36.487 117.75 33.291 71.513-3.0825 176.93-20.961 188.03-29.592 11.097-8.6309 25.246-20.759-6.7815-43.771-97.661-70.17-250.3-11.713-266.33-1.8495-16.029 9.8639-29.202 11.668-32.674 41.922l0.0055-5e-4" color="#000000" fill="#3f0007" stroke="#3f0007" stroke-width="2.4454"/>
 <path d="m33.513 76.943s-83.158 99.789 22.572 165.13c0 0 0 24.948 3.5639 38.016 22.572-47.519 90.287-51.082 90.287-51.082 110.48 76.03 255.42 98.601 255.42 98.601 0-11.88-33.262-39.202-33.262-39.202 4.7519-9.5038 5.9399-35.639 5.9399-35.639 45.118-27.318 66.49-108.1 66.49-108.1 19.025-61.773-61.721-106.01-115.23-123.55-11.106-3.6414-22.816-6.8374-34.934-9.5073-91.921-20.251-207.34-10.229-260.86 65.343l0.01076-0.0097816" color="#000000" fill="#a31919" stroke="#a31919" stroke-width="4.8908"/>
 <path d="m209.95 0.4116c-69.581 0.34314-138.84 20.228-176.71 73.687 0 0-20.442 22.621-28.77 53.417 9.1903-23.04 23.88-38.745 23.88-38.745 60.587-85.533 203.34-85.071 298.68-53.809 53.513 17.545 134.25 61.795 115.24 123.57 0 0-0.32057 1.253-0.99344 3.5153 3.8994-10.885 5.8841-18.188 5.8841-18.188 19.008-61.776-62.959-107.26-116.47-124.8-35.757-11.723-79.001-18.852-120.75-18.646h0.011371" color="#000000" fill="#980101"/>
 <path d="m298.59 292.05c56.281 24.361 99.618 32.367 99.618 32.367-17.073-24.361-89.196-32.367-99.618-32.367" color="#000000" fill="#fff" filter="url(#filter4443)"/>
 <path d="m384.55 242.66c-9.5126-31.48-55.828-53.456-55.828-53.456" color="#000000" fill="none" filter="url(#filter4403)" stroke="#888" stroke-width="4.8908"/>
 <g fill="none" filter="url(#filter4481)" stroke="#cccccf">
  <path d="m150.82 229.65c130.38-16.29 223.55 57.577 223.55 57.577" color="#000000"/>
  <path d="m53.907 244.93c4.6455-10.452 22.066-15.679 22.066-15.679" color="#000000"/>
 </g>
 <g stroke="#d9bb7a">
  <path d="m86.969 198.66c-3.0281-0.027633-6.3343 0.23207-9.64 1.3961s-6.7564 3.4487-8.7093 7.1802c-2.9061 5.5533-3.5319 10.968-2.3934 15.49 1.1385 4.5228 3.7933 7.9092 6.2495 10.438l0.066515 0.066515 0.066759 0.066515s4.5176 4.2633 11.169 3.8559c6.6515-0.40731 16.505-5.3747 19.825-19.21l-8.534-4.1462c-5.7428 10.81-9.8694 12.591-11.956 12.719-1.8862 0.11567-2.8641-0.62969-3.0582-0.79779-0.024943-0.025677-0.041816-0.040838-0.066515-0.066515l-0.066515-0.066515c-1.7103-1.7898-2.9213-3.5869-3.3905-5.4515-0.48282-1.918-0.44785-4.1339 1.5291-7.9114 0.48876-0.93387 1.2318-1.578 2.7922-2.1274 1.5604-0.54946 3.8107-0.81818 6.0499-0.79779 4.4785 0.040838 6.8963 2.8103 6.8963 2.8103s5.4559-8.8347 5.4559-8.8347-6.2294-4.5575-12.285-4.6128l-4.1572e-4 9.7816e-5" color="#000000" fill="#fdd99b" opacity=".98" stroke-width="3.1912" style="block-progression:tb;text-indent:0;text-transform:none"/>
  <path d="m200.8 182.52c-37.131 0.29951-74.678 8.1356-107.34 25.863l7.0161 12.874c48.121-26.119 109.63-29.223 162.28-17.355 52.649 11.866 100.3 42.944 112.59 72.736 0 0 5.5941-2.6405 6.8095-6.3602s-2.6943-13.191-2.6943-13.191c-18.163-34.558-57.91-55.022-113.46-67.54-20.831-4.6949-42.934-7.2061-65.214-7.0264l2.4454e-4 2.4454e-4" color="#000000" fill="#fdd99b" opacity=".98" style="block-progression:tb;text-indent:0;text-transform:none"/>
  <path d="m96.971 215.39c100.38-54.484 247.35-14.208 283.76 57.567" color="#000000" fill="none" opacity=".98"/>
 </g>
 <path d="m90.525 220.09c0 9.1854-4.5208 16.632-10.098 16.632s-10.098-7.4462-10.098-16.632 4.5208-16.632 10.098-16.632c5.5767 0 10.098 7.4462 10.098 16.632" fill="#cccccf" stroke="#aaa"/>
</svg>
